<svg xmlns="http://www.w3.org/2000/svg" fill="none" viewBox="0 0 33 32" height="32" width="33">
<path fill="white" d="M25.0441 23.8458C25.0441 23.2811 25.0441 22.7164 25.0441 22.1517C25.0441 21.754 25.3598 21.4514 25.7569 21.4653C26.104 21.4769 26.3977 21.7656 26.4035 22.1123C26.4105 22.5124 26.4058 22.9124 26.4058 23.3136C26.4058 23.9026 26.4058 24.4917 26.4047 25.0819C26.4047 25.141 26.4244 25.17 26.4743 25.199C27.3195 25.6837 28.1635 26.1718 29.0075 26.6589C29.278 26.8154 29.4104 27.1134 29.3407 27.4114C29.2722 27.7059 29.018 27.9181 28.7068 27.9367C28.5722 27.9448 28.4456 27.91 28.3272 27.8416C27.6237 27.4357 26.9201 27.0299 26.2155 26.6241C25.938 26.4641 25.6582 26.3052 25.3819 26.1417C25.1602 26.0107 25.0429 25.8124 25.0417 25.5538C25.0394 24.9845 25.0417 24.4163 25.0417 23.847L25.0441 23.8458Z"></path>
<path fill="white" d="M25.7267 32.0009C22.1649 32.0009 19.2672 29.1067 19.2672 25.5493C19.2672 21.9919 22.1649 19.0977 25.7267 19.0977C29.2885 19.0977 32.1862 21.9919 32.1862 25.5493C32.1862 29.1067 29.2885 32.0009 25.7267 32.0009ZM25.7487 20.314C22.8464 20.314 20.485 22.6725 20.485 25.5713C20.485 28.4702 22.8464 30.8286 25.7487 30.8286C28.6511 30.8286 31.0125 28.4702 31.0125 25.5713C31.0125 22.6725 28.6511 20.314 25.7487 20.314Z"></path>
<path fill="white" d="M9.86472 20.9246H13.452H14.447V22.4575H15.4547V20.9246H20.038C20.319 20.9246 20.5709 20.7541 20.6777 20.4956C20.7845 20.2358 20.723 19.9378 20.5222 19.7407L18.0018 17.2616H18.9653C19.244 17.2582 19.4936 17.0877 19.5992 16.8303C19.7049 16.5717 19.6468 16.276 19.4518 16.0789L17.3052 13.9674H17.7672C18.0459 13.9628 18.2955 13.7923 18.4011 13.5349C18.5068 13.2786 18.4487 12.9818 18.2525 12.7835L15.4349 10.0099C15.1656 9.7467 14.7325 9.7467 14.4632 10.0099L11.6456 12.7835C11.4506 12.983 11.3914 13.2786 11.497 13.5349C11.6026 13.7935 11.8523 13.9628 12.1309 13.9662H12.5929L10.4464 16.0801C10.2513 16.2795 10.1933 16.5752 10.2989 16.8314C10.4046 17.09 10.6542 17.2593 10.9328 17.2628H11.8952L9.37596 19.7419C9.18093 19.9413 9.12288 20.237 9.22852 20.4944C9.33301 20.7507 9.58261 20.9211 9.86124 20.9258L9.86472 20.9246ZM13.1548 17.4367H13.156C13.351 17.2373 13.4102 16.9416 13.3046 16.6853C13.1989 16.4268 12.9493 16.2575 12.6707 16.254H11.7071L13.8537 14.1402C14.0499 13.943 14.108 13.6462 14.0023 13.3888C13.8967 13.1302 13.6471 12.9609 13.3684 12.9574H12.9064L14.9531 10.9422L16.9999 12.9574H16.5378C16.258 12.9609 16.0084 13.1314 15.9028 13.3888C15.7983 13.6474 15.8563 13.943 16.0514 14.1402L18.1991 16.254H17.2355C16.9569 16.2575 16.7073 16.4279 16.6017 16.6853C16.496 16.9439 16.5541 17.2396 16.7491 17.4367L19.2695 19.9158H10.6391L13.1571 17.4367H13.1548Z"></path>
<path fill="white" d="M20.2714 27.082H2.92813C2.33025 27.0809 1.84614 26.5974 1.84614 26.0014V25.0645C2.1712 25.2674 2.54735 25.3741 2.92813 25.3752H20.2134C20.2227 25.0598 20.2389 24.7456 20.2575 24.436C20.2587 24.4128 20.2621 24.3908 20.2656 24.3676H2.9293C2.33141 24.3676 1.84846 23.8829 1.8473 23.2869V8.61185H28.0579V20.3023C28.1995 20.2791 28.3493 20.3057 28.4863 20.4089C28.7254 20.5875 28.9146 20.8055 29.0667 21.0467C29.0667 14.9661 29.0644 5.35588 29.0667 4.2694C29.0656 3.11682 28.1298 2.18224 26.9759 2.17992H23.0565V1.54334C23.0461 0.688763 22.3495 0 21.4939 0C20.6383 0 19.9417 0.688763 19.9313 1.54334V2.17992H9.97389V1.54334C9.96344 0.688763 9.26687 0.00115953 8.41126 0.00115953C7.55565 0.00115953 6.86024 0.688763 6.84979 1.54334V2.17992H2.9293C1.77532 2.18108 0.839601 3.11682 0.83844 4.2694V26.0002C0.839601 27.1528 1.77532 28.0874 2.9293 28.0885H20.4676C20.3748 27.7604 20.3121 27.423 20.2714 27.082ZM20.9378 1.54334C20.939 1.23722 21.1863 0.989082 21.4927 0.989082C21.7992 0.990241 22.0465 1.23722 22.0477 1.54334V4.88163C22.043 5.18427 21.7958 5.42661 21.4927 5.42661C21.1897 5.42661 20.9436 5.18427 20.9378 4.88163V1.54334ZM7.85749 1.54334C7.86097 1.2407 8.10826 0.998358 8.41126 0.998358C8.71427 0.998358 8.96039 1.2407 8.96619 1.54334C8.96735 2.26341 8.96503 4.13721 8.96619 4.88163C8.96155 5.18427 8.71427 5.42661 8.41126 5.42661C8.10826 5.42661 7.86213 5.18427 7.85749 4.88163V1.54334ZM1.84614 4.2694C1.8473 3.67108 2.33141 3.18872 2.92813 3.1864H6.84863V4.40391H6.25887C5.98025 4.40507 5.75503 4.63002 5.75503 4.9083C5.78289 5.56112 6.5108 5.39299 6.94847 5.41154C7.17486 6.02145 7.75881 6.42729 8.4101 6.42729C9.06139 6.42729 9.6465 6.02145 9.87289 5.41154C10.314 5.39299 11.042 5.55996 11.0687 4.9083C11.0687 4.63002 10.8434 4.40507 10.5648 4.40507H9.97273V3.1864H19.9313V4.40391H19.3404C19.0652 4.4097 18.847 4.63465 18.847 4.9083C18.847 5.18195 19.0664 5.4069 19.3404 5.41154H20.03C20.2575 6.02145 20.8415 6.42613 21.4927 6.42613C22.144 6.42613 22.728 6.02261 22.9555 5.41154H23.6463C23.781 5.4127 23.911 5.36052 24.005 5.26544C24.1002 5.17152 24.1548 5.04165 24.1548 4.9083C24.1548 4.77496 24.1002 4.64509 24.005 4.55117C23.911 4.45724 23.781 4.40391 23.6463 4.40507H23.0554V3.1864H26.9747C27.5726 3.18756 28.0567 3.67108 28.0567 4.2694V7.60538H1.84614V4.2694Z"></path>
</svg>
