<svg xmlns="http://www.w3.org/2000/svg" fill="none" viewBox="0 0 32 32" height="32" width="32">
<path fill="white" d="M24.5317 23.8458C24.5317 23.2811 24.5317 22.7164 24.5317 22.1517C24.5317 21.754 24.8475 21.4514 25.2446 21.4653C25.5917 21.4769 25.8854 21.7656 25.8912 22.1123C25.8982 22.5124 25.8935 22.9124 25.8935 23.3136C25.8935 23.9026 25.8935 24.4917 25.8924 25.0819C25.8924 25.141 25.9121 25.17 25.962 25.199C26.8072 25.6837 27.6512 26.1718 28.4952 26.6589C28.7657 26.8154 28.898 27.1134 28.8284 27.4114C28.7599 27.7059 28.5056 27.9181 28.1945 27.9367C28.0598 27.9448 27.9333 27.91 27.8149 27.8416C27.1113 27.4357 26.4078 27.0299 25.7031 26.6241C25.4257 26.4641 25.1459 26.3052 24.8696 26.1417C24.6478 26.0107 24.5306 25.8124 24.5294 25.5538C24.5271 24.9845 24.5294 24.4163 24.5294 23.847L24.5317 23.8458Z"></path>
<path fill="white" d="M25.2144 32.0009C21.6526 32.0009 18.7549 29.1067 18.7549 25.5493C18.7549 21.9919 21.6526 19.0977 25.2144 19.0977C28.7761 19.0977 31.6738 21.9919 31.6738 25.5493C31.6738 29.1067 28.7761 32.0009 25.2144 32.0009ZM25.2364 20.314C22.3341 20.314 19.9727 22.6725 19.9727 25.5713C19.9727 28.4702 22.3341 30.8286 25.2364 30.8286C28.1388 30.8286 30.5001 28.4702 30.5001 25.5713C30.5001 22.6725 28.1388 20.314 25.2364 20.314Z"></path>
<path fill="white" d="M9.35239 20.9246H12.9397H13.9346V22.4575H14.9423V20.9246H19.5257C19.8067 20.9246 20.0586 20.7541 20.1654 20.4956C20.2722 20.2358 20.2107 19.9378 20.0098 19.7407L17.4894 17.2616H18.453C18.7316 17.2582 18.9812 17.0877 19.0869 16.8303C19.1925 16.5717 19.1345 16.276 18.9394 16.0789L16.7929 13.9674H17.2549C17.5335 13.9628 17.7831 13.7923 17.8888 13.5349C17.9944 13.2786 17.9364 12.9818 17.7402 12.7835L14.9226 10.0099C14.6532 9.7467 14.2202 9.7467 13.9509 10.0099L11.1333 12.7835C10.9382 12.983 10.879 13.2786 10.9847 13.5349C11.0903 13.7935 11.3399 13.9628 11.6185 13.9662H12.0806L9.93402 16.0801C9.73898 16.2795 9.68094 16.5752 9.78658 16.8314C9.89223 17.09 10.1418 17.2593 10.4205 17.2628H11.3829L8.86364 19.7419C8.6686 19.9413 8.61055 20.237 8.7162 20.4944C8.82068 20.7507 9.07028 20.9211 9.34891 20.9258L9.35239 20.9246ZM12.6425 17.4367H12.6437C12.8387 17.2373 12.8979 16.9416 12.7923 16.6853C12.6866 16.4268 12.437 16.2575 12.1584 16.254H11.1948L13.3414 14.1402C13.5376 13.943 13.5956 13.6462 13.49 13.3888C13.3843 13.1302 13.1347 12.9609 12.8561 12.9574H12.3941L14.4408 10.9422L16.4875 12.9574H16.0255C15.7457 12.9609 15.4961 13.1314 15.3904 13.3888C15.286 13.6474 15.344 13.943 15.539 14.1402L17.6868 16.254H16.7232C16.4446 16.2575 16.195 16.4279 16.0893 16.6853C15.9837 16.9439 16.0417 17.2396 16.2368 17.4367L18.7572 19.9158H10.1267L12.6448 17.4367H12.6425Z"></path>
<path fill="white" d="M19.7591 27.082H2.41581C1.81792 27.0809 1.33381 26.5974 1.33381 26.0014V25.0645C1.65887 25.2674 2.03502 25.3741 2.41581 25.3752H19.7011C19.7103 25.0598 19.7266 24.7456 19.7452 24.436C19.7463 24.4128 19.7498 24.3908 19.7533 24.3676H2.41697C1.81908 24.3676 1.33613 23.8829 1.33497 23.2869V8.61185H27.5455V20.3023C27.6872 20.2791 27.8369 20.3057 27.9739 20.4089C28.2131 20.5875 28.4023 20.8055 28.5544 21.0467C28.5544 14.9661 28.5521 5.35588 28.5544 4.2694C28.5532 3.11682 27.6175 2.18224 26.4635 2.17992H22.5442V1.54334C22.5338 0.688763 21.8372 0 20.9816 0C20.126 0 19.4294 0.688763 19.419 1.54334V2.17992H9.46156V1.54334C9.45111 0.688763 8.75455 0.00115953 7.89893 0.00115953C7.04332 0.00115953 6.34791 0.688763 6.33746 1.54334V2.17992H2.41697C1.26299 2.18108 0.327272 3.11682 0.326111 4.2694V26.0002C0.327272 27.1528 1.26299 28.0874 2.41697 28.0885H19.9553C19.8624 27.7604 19.7997 27.423 19.7591 27.082ZM20.4255 1.54334C20.4266 1.23722 20.6739 0.989082 20.9804 0.989082C21.2869 0.990241 21.5342 1.23722 21.5353 1.54334V4.88163C21.5307 5.18427 21.2834 5.42661 20.9804 5.42661C20.6774 5.42661 20.4313 5.18427 20.4255 4.88163V1.54334ZM7.34516 1.54334C7.34864 1.2407 7.59593 0.998358 7.89893 0.998358C8.20194 0.998358 8.44806 1.2407 8.45386 1.54334C8.45502 2.26341 8.4527 4.13721 8.45386 4.88163C8.44922 5.18427 8.20194 5.42661 7.89893 5.42661C7.59593 5.42661 7.34981 5.18427 7.34516 4.88163V1.54334ZM1.33381 4.2694C1.33497 3.67108 1.81908 3.18872 2.41581 3.1864H6.3363V4.40391H5.74655C5.46792 4.40507 5.2427 4.63002 5.2427 4.9083C5.27056 5.56112 5.99847 5.39299 6.43615 5.41154C6.66253 6.02145 7.24648 6.42729 7.89777 6.42729C8.54906 6.42729 9.13417 6.02145 9.36056 5.41154C9.80171 5.39299 10.5296 5.55996 10.5563 4.9083C10.5563 4.63002 10.3311 4.40507 10.0525 4.40507H9.4604V3.1864H19.419V4.40391H18.828C18.5529 4.4097 18.3346 4.63465 18.3346 4.9083C18.3346 5.18195 18.5541 5.4069 18.828 5.41154H19.5176C19.7452 6.02145 20.3291 6.42613 20.9804 6.42613C21.6317 6.42613 22.2157 6.02261 22.4432 5.41154H23.134C23.2686 5.4127 23.3987 5.36052 23.4927 5.26544C23.5879 5.17152 23.6425 5.04165 23.6425 4.9083C23.6425 4.77496 23.5879 4.64509 23.4927 4.55117C23.3987 4.45724 23.2686 4.40391 23.134 4.40507H22.543V3.1864H26.4624C27.0603 3.18756 27.5444 3.67108 27.5444 4.2694V7.60538H1.33381V4.2694Z"></path>
</svg>
