<svg xmlns="http://www.w3.org/2000/svg" fill="none" viewBox="0 0 32 32" height="32" width="32">
<path fill="white" d="M27.282 4.84645C33.5727 11.0041 33.5727 20.9964 27.282 27.1549C20.9997 33.3035 10.822 33.3035 4.53943 27.1546C3.33973 25.9794 2.35048 24.6476 1.59229 23.2007L1.63613 25.0519C1.64522 25.4452 1.3567 25.7761 0.976364 25.8292L0.887058 25.8365C0.493818 25.8456 0.162872 25.557 0.109761 25.1767L0.102535 25.0874L0 20.6523L4.46829 20.6579C4.89189 20.6584 5.23486 21.0022 5.23433 21.4258C5.23384 21.8192 4.93734 22.143 4.55583 22.1868L4.46637 22.1919L2.79955 22.189L2.91465 22.4188C3.6031 23.7508 4.50858 24.977 5.61266 26.0586C11.2987 31.6236 20.523 31.6236 26.2089 26.0587C31.885 20.5019 31.885 11.4987 26.209 5.94268C20.523 0.376942 11.2987 0.376942 5.61261 5.94277C3.88954 7.62882 2.65292 9.66941 1.96836 11.9026C1.84421 12.3076 1.41525 12.5353 1.01025 12.4112C0.605244 12.287 0.377567 11.858 0.501716 11.453C1.26111 8.97571 2.63266 6.71247 4.53965 4.84645C10.8219 -1.30298 20.9997 -1.30298 27.282 4.84645Z"></path>
<g clip-path="url(#clip0_3852_12539)">
<path fill="white" d="M22.0058 16.1073V21.022C22.0058 21.8253 21.3633 22.4773 20.5755 22.4773H11.6352C10.8457 22.4773 10.2049 21.8236 10.2049 21.022V16.1073C10.2049 15.8269 10.4281 15.5981 10.7054 15.5981C10.9826 15.5981 11.2058 15.8252 11.2058 16.1073V21.022C11.2058 21.2645 11.3985 21.4607 11.6369 21.4607H20.5755C20.8139 21.4607 21.0066 21.2645 21.0066 21.022V16.1073C21.0066 15.8269 21.2298 15.5981 21.507 15.5981C21.7843 15.5981 22.0075 15.8252 22.0075 16.1073H22.0058ZM23.0067 12.5808V14.2615C23.0067 14.8756 22.5164 15.3745 21.9128 15.3745H16.6041V20.7846C16.6041 21.065 16.3809 21.2938 16.1037 21.2938C15.8264 21.2938 15.6032 21.0667 15.6032 20.7846V15.3745H10.2979C9.69433 15.3745 9.20404 14.8756 9.20404 14.2615V12.5808C9.20404 11.9667 9.69433 11.4678 10.2979 11.4678H11.7688C11.4323 10.9569 11.4493 10.5011 11.4915 10.2706C11.6031 9.65299 12.1238 9.17993 12.817 9.06984C13.6133 8.94254 14.7021 9.27798 15.6996 10.4615C15.8348 9.52398 16.1375 8.8376 16.6836 8.10479C16.8509 7.88116 17.1637 7.83815 17.3835 8.00845C17.6033 8.17876 17.6456 8.497 17.4782 8.72063C17.1214 9.19713 16.8983 9.63579 16.7664 10.1828C17.6929 9.22638 18.6667 8.95286 19.3971 9.06984C20.0903 9.18165 20.6093 9.65299 20.7226 10.2706C20.7648 10.5011 20.7817 10.9569 20.4453 11.4678H21.9162C22.5198 11.4678 23.0101 11.9667 23.0101 12.5808H23.0067ZM17.0065 11.4661H18.9879C19.6034 11.0739 19.7809 10.68 19.7386 10.4529C19.7048 10.262 19.5121 10.1157 19.2399 10.0727C18.6853 9.98328 17.8214 10.3204 17.0048 11.4661H17.0065ZM13.2245 11.4661H15.2059C14.391 10.3204 13.5254 9.98328 12.9709 10.0727C12.6987 10.1157 12.5076 10.262 12.4721 10.4529C12.4315 10.68 12.6074 11.0739 13.2228 11.4661H13.2245ZM15.6049 14.3561V12.4828H10.2979C10.2472 12.4828 10.2032 12.5275 10.2032 12.5791V14.2598C10.2032 14.3114 10.2472 14.3561 10.2979 14.3561H15.6049ZM22.0075 12.5808C22.0075 12.5292 21.9635 12.4845 21.9128 12.4845H16.6041V14.3578H21.9128C21.9635 14.3578 22.0075 14.3131 22.0075 14.2615V12.5808Z"></path>
</g>
<defs>
<clipPath id="clip0_3852_12539">
<rect transform="translate(9.20404 7.9043)" fill="white" height="14.573" width="13.806"></rect>
</clipPath>
</defs>
</svg>
