<svg xmlns="http://www.w3.org/2000/svg" fill="none" viewBox="0 0 33 32" height="32" width="33">
<path fill="white" d="M28.0504 4.68053C34.4344 10.9296 34.4344 21.0702 28.0503 27.3201C21.6748 33.56 11.346 33.56 4.97022 27.3199C3.75271 26.1272 2.74877 24.7756 1.97933 23.3073L2.02382 25.186C2.03304 25.585 1.74024 25.9209 1.35426 25.9748L1.26363 25.9821C0.864551 25.9913 0.528693 25.6985 0.474794 25.3126L0.46746 25.2219L0.363403 20.721L4.89802 20.7267C5.32791 20.7272 5.67597 21.0761 5.67543 21.506C5.67493 21.9052 5.37403 22.2338 4.98686 22.2783L4.89607 22.2834L3.20451 22.2805L3.32132 22.5137C4.01999 23.8655 4.9389 25.1099 6.05938 26.2075C11.8298 31.8552 21.191 31.8552 26.9614 26.2076C32.7217 20.5683 32.7217 11.4315 26.9614 5.79304C21.191 0.144683 11.8298 0.144683 6.05932 5.79313C4.31068 7.5042 3.05571 9.57509 2.36098 11.8415C2.23499 12.2525 1.79966 12.4835 1.38865 12.3575C0.977632 12.2315 0.746575 11.7962 0.872567 11.3852C1.64324 8.87109 3.03514 6.57425 4.97044 4.68053C11.346 -1.56018 21.6748 -1.56018 28.0504 4.68053Z"></path>
<g clip-path="url(#clip0_3852_12511)">
<path fill="white" d="M22.6958 16.108V21.0956C22.6958 21.9109 22.0438 22.5725 21.2443 22.5725H12.1713C11.37 22.5725 10.7198 21.9091 10.7198 21.0956V16.108C10.7198 15.8234 10.9463 15.5912 11.2276 15.5912C11.509 15.5912 11.7355 15.8217 11.7355 16.108V21.0956C11.7355 21.3418 11.9311 21.5408 12.173 21.5408H21.2443C21.4862 21.5408 21.6818 21.3418 21.6818 21.0956V16.108C21.6818 15.8234 21.9083 15.5912 22.1897 15.5912C22.4711 15.5912 22.6975 15.8217 22.6975 16.108H22.6958ZM23.7116 12.5291V14.2348C23.7116 14.858 23.214 15.3643 22.6015 15.3643H17.2139V20.8547C17.2139 21.1393 16.9875 21.3714 16.7061 21.3714C16.4247 21.3714 16.1982 21.141 16.1982 20.8547V15.3643H10.8141C10.2016 15.3643 9.70404 14.858 9.70404 14.2348V12.5291C9.70404 11.9059 10.2016 11.3996 10.8141 11.3996H12.3069C11.9654 10.8811 11.9826 10.4185 12.0255 10.1846C12.1387 9.55786 12.6672 9.07777 13.3706 8.96604C14.1788 8.83686 15.2837 9.17728 16.296 10.3784C16.4333 9.42692 16.7404 8.73036 17.2946 7.98667C17.4645 7.75972 17.7819 7.71607 18.0049 7.88891C18.228 8.06174 18.2709 8.3847 18.101 8.61165C17.739 9.09523 17.5125 9.5404 17.3787 10.0956C18.3189 9.12491 19.3072 8.84733 20.0484 8.96604C20.7519 9.07952 21.2786 9.55786 21.3936 10.1846C21.4364 10.4185 21.4536 10.8811 21.1122 11.3996H22.6049C23.2174 11.3996 23.715 11.9059 23.715 12.5291H23.7116ZM17.6223 11.3979H19.6332C20.2577 10.9999 20.4379 10.6001 20.395 10.3696C20.3607 10.1759 20.1651 10.0275 19.8888 9.98382C19.3261 9.89304 18.4493 10.2352 17.6206 11.3979H17.6223ZM13.7841 11.3979H15.795C14.968 10.2352 14.0895 9.89304 13.5268 9.98382C13.2505 10.0275 13.0566 10.1759 13.0206 10.3696C12.9794 10.6001 13.1579 10.9999 13.7824 11.3979H13.7841ZM16.1999 14.3308V12.4296H10.8141C10.7627 12.4296 10.7181 12.475 10.7181 12.5274V14.233C10.7181 14.2854 10.7627 14.3308 10.8141 14.3308H16.1999ZM22.6975 12.5291C22.6975 12.4768 22.6529 12.4314 22.6015 12.4314H17.2139V14.3325H22.6015C22.6529 14.3325 22.6975 14.2871 22.6975 14.2348V12.5291Z"></path>
</g>
<defs>
<clipPath id="clip0_3852_12511">
<rect transform="translate(9.70404 7.7832)" fill="white" height="14.7893" width="14.0109"></rect>
</clipPath>
</defs>
</svg>
