<svg xmlns="http://www.w3.org/2000/svg" fill="none" viewBox="0 0 46 32" height="32" width="46">
<g clip-path="url(#clip0_3852_12499)">
<path fill="white" d="M41.7601 7.15293C41.7601 5.28624 43.3092 3.77262 45.2198 3.77262C45.2243 3.77262 45.2289 3.77262 45.2334 3.77262L45.3634 3.64565L45.2334 3.51868C45.2334 3.51868 45.2243 3.51868 45.2198 3.51868C43.3092 3.51868 41.7601 2.00507 41.7601 0.138382C41.7601 0.133927 41.7601 0.129472 41.7601 0.125017L41.6301 -0.00195312L41.5002 0.125017C41.5002 0.125017 41.5002 0.133927 41.5002 0.138382C41.5002 2.00507 39.951 3.51868 38.0405 3.51868C38.0359 3.51868 38.0314 3.51868 38.0268 3.51868L37.8969 3.64565L38.0268 3.77262C38.0268 3.77262 38.0359 3.77262 38.0405 3.77262C39.951 3.77262 41.5002 5.28624 41.5002 7.15293C41.5002 7.15738 41.5002 7.16184 41.5002 7.16629L41.6301 7.29326L41.7601 7.16629C41.7601 7.16629 41.7601 7.15738 41.7601 7.15293Z"></path>
</g>
<g clip-path="url(#clip1_3852_12499)">
<path fill="white" d="M37.8976 8.40233C37.8976 7.60435 38.5835 6.95731 39.4293 6.95731C39.4314 6.95731 39.4334 6.95731 39.4354 6.95731L39.4929 6.90303L39.4354 6.84876C39.4354 6.84876 39.4314 6.84876 39.4293 6.84876C38.5835 6.84876 37.8976 6.20171 37.8976 5.40374C37.8976 5.40184 37.8976 5.39993 37.8976 5.39803L37.84 5.34375L37.7825 5.39803C37.7825 5.39803 37.7825 5.40184 37.7825 5.40374C37.7825 6.20171 37.0966 6.84876 36.2507 6.84876C36.2487 6.84876 36.2467 6.84876 36.2447 6.84876L36.1871 6.90303L36.2447 6.95731C36.2447 6.95731 36.2487 6.95731 36.2507 6.95731C37.0966 6.95731 37.7825 7.60435 37.7825 8.40233C37.7825 8.40423 37.7825 8.40613 37.7825 8.40804L37.84 8.46232L37.8976 8.40804C37.8976 8.40804 37.8976 8.40423 37.8976 8.40233Z"></path>
</g>
<path fill="white" d="M0.581691 15.1463C-0.193897 15.1463 -0.193897 16.3048 0.581691 16.3048H4.15392V27.1522C4.15392 27.4732 4.41576 27.7314 4.74128 27.7314H9.99065C10.1039 30.1027 12.0867 32.0009 14.5196 32.0009C16.9525 32.0009 18.9382 30.1041 19.0486 27.7314H31.7099C31.8232 30.1027 33.8103 32.0009 36.2389 32.0009C38.6676 32.0009 40.6533 30.1041 40.7679 27.7356H42.6135C42.939 27.7356 43.2008 27.4774 43.2008 27.1564V21.9713C43.2008 20.1862 42.3191 18.51 40.8387 17.4827L39.8635 16.8072L38.7157 13.6013C38.018 11.6501 36.1384 10.3367 34.0381 10.3367H30.0271V7.8175C30.0271 7.49649 29.7653 7.23828 29.4398 7.23828H4.74694C4.42142 7.23828 4.15959 7.49649 4.15959 7.8175V10.8113H0.583106C-0.192482 10.8113 -0.192482 11.9697 0.583106 11.9697H4.15534V15.1449H0.583106L0.581691 15.1463ZM36.2432 30.8424C34.007 30.8424 32.3766 28.7028 33.0191 26.5772C34.116 22.9609 39.6045 23.6908 39.6045 27.5276C39.6045 29.3281 38.1156 30.8466 36.2389 30.8466L36.2432 30.8424ZM42.0289 26.5785H40.6773C40.5287 25.903 40.223 25.2847 39.8041 24.7586H42.0332V26.5785H42.0289ZM32.7799 11.4994H34.0452C35.6473 11.4994 37.081 12.5001 37.6146 13.9907C38.6181 16.7877 38.5346 16.4164 38.3548 16.4164H32.7799V11.498V11.4994ZM30.03 11.4994H31.6052V16.997C31.6052 17.3181 31.867 17.5763 32.1926 17.5763H38.9351L40.1692 18.4332C41.3369 19.2441 42.0346 20.5659 42.0346 21.9755V23.6015H38.4227C37.0669 22.8674 35.4265 22.8674 34.0707 23.6015H30.0356V11.5036L30.0314 11.4994H30.03ZM30.03 24.7586H32.678C32.2591 25.2833 31.9534 25.9016 31.8048 26.5785H30.03V24.7586ZM14.521 30.8424C12.2877 30.8424 10.6502 28.7098 11.297 26.573C12.3981 22.9497 17.8824 23.695 17.8824 27.5234C17.8824 29.3281 16.3935 30.8424 14.5168 30.8424H14.521ZM28.8539 26.5744H18.9538C18.8052 25.8988 18.4995 25.2805 18.0805 24.7544H28.7831C28.885 24.7544 28.8539 24.4989 28.8539 26.5744ZM5.33429 16.3062H6.41983C7.19542 16.3062 7.19542 15.1477 6.41983 15.1477H5.33429V11.9725H6.8147C7.59029 11.9725 7.59029 10.8141 6.8147 10.8141H5.33429V8.39951H28.8581C28.8581 23.5973 28.9006 23.5973 28.7873 23.5973H16.702C15.3462 22.8632 13.7058 22.8632 12.35 23.5973H5.33429V16.3076V16.3062ZM5.33429 24.7544H10.963C10.544 25.2791 10.2383 25.8974 10.0897 26.5744H5.33429V24.7544ZM12.4915 27.5248C12.4915 28.5828 13.3732 29.5305 14.5253 29.5305C15.9944 29.5305 17.0672 27.9617 16.3043 26.5758C15.2782 24.7139 12.4887 25.5025 12.4887 27.5262H12.4929L12.4915 27.5248ZM14.5239 28.3706C14.0384 28.3706 13.6662 27.9729 13.6662 27.5248C13.6662 27.0768 14.0384 26.679 14.5239 26.679C15.0093 26.679 15.3816 27.0852 15.3816 27.5248C15.3816 27.9645 15.0093 28.3706 14.5239 28.3706ZM11.9268 16.3062H8.62488C7.84929 16.3062 7.84929 15.1477 8.62488 15.1477H11.9268C12.7024 15.1477 12.7024 16.3062 11.9268 16.3062ZM34.2094 27.5248C34.2094 28.58 35.0911 29.5305 36.2432 29.5305C37.7123 29.5305 38.7851 27.9617 38.0222 26.5758C36.9876 24.6985 34.2065 25.5206 34.2065 27.5262H34.2108L34.2094 27.5248ZM36.2432 28.3706C35.7535 28.3706 35.3855 27.9687 35.3855 27.5248C35.3855 27.081 35.7535 26.679 36.2432 26.679C36.7329 26.679 37.1008 27.088 37.1008 27.5248C37.1008 27.9617 36.7286 28.3706 36.2432 28.3706ZM1.00487 21.4591C0.22928 21.4591 0.22928 20.3007 1.00487 20.3007H2.59143C3.36701 20.3007 3.36701 21.4591 2.59143 21.4591H1.00487Z"></path>
<defs>
<clipPath id="clip0_3852_12499">
<rect transform="translate(37.8969)" fill="white" height="7.29522" width="7.46653"></rect>
</clipPath>
<clipPath id="clip1_3852_12499">
<rect transform="translate(36.1871 5.3457)" fill="white" height="3.11857" width="3.30579"></rect>
</clipPath>
</defs>
</svg>
