<svg xmlns="http://www.w3.org/2000/svg" fill="none" viewBox="0 0 32 32" height="32" width="32">
<g clip-path="url(#clip0_3852_12540)">
<path fill="white" d="M29.4582 9.76005C29.4582 8.44326 30.551 7.37553 31.8987 7.37553C31.9019 7.37553 31.9051 7.37553 31.9084 7.37553L32 7.28597L31.9084 7.1964C31.9084 7.1964 31.9019 7.1964 31.8987 7.1964C30.551 7.1964 29.4582 6.12867 29.4582 4.81189C29.4582 4.80874 29.4582 4.8056 29.4582 4.80246L29.3665 4.71289L29.2749 4.80246C29.2749 4.80246 29.2749 4.80874 29.2749 4.81189C29.2749 6.12867 28.1821 7.1964 26.8344 7.1964C26.8311 7.1964 26.8279 7.1964 26.8247 7.1964L26.733 7.28597L26.8247 7.37553C26.8247 7.37553 26.8311 7.37553 26.8344 7.37553C28.1821 7.37553 29.2749 8.44326 29.2749 9.76005C29.2749 9.76319 29.2749 9.76634 29.2749 9.76948L29.3665 9.85904L29.4582 9.76948C29.4582 9.76948 29.4582 9.76319 29.4582 9.76005Z"></path>
</g>
<g clip-path="url(#clip1_3852_12540)">
<path fill="white" d="M26.7335 10.6419C26.7335 10.079 27.2174 9.6226 27.8141 9.6226C27.8155 9.6226 27.8169 9.6226 27.8183 9.6226L27.8589 9.58432L27.8183 9.54603C27.8183 9.54603 27.8155 9.54603 27.8141 9.54603C27.2174 9.54603 26.7335 9.08959 26.7335 8.52669C26.7335 8.52535 26.7335 8.52401 26.7335 8.52266L26.693 8.48438L26.6524 8.52266C26.6524 8.52266 26.6524 8.52535 26.6524 8.52669C26.6524 9.08959 26.1685 9.54603 25.5718 9.54603C25.5704 9.54603 25.569 9.54603 25.5676 9.54603L25.527 9.58432L25.5676 9.6226C25.5676 9.6226 25.5704 9.6226 25.5718 9.6226C26.1685 9.6226 26.6524 10.079 26.6524 10.6419C26.6524 10.6433 26.6524 10.6446 26.6524 10.646L26.693 10.6843L26.7335 10.646C26.7335 10.646 26.7335 10.6433 26.7335 10.6419Z"></path>
</g>
<path fill="white" d="M0.410333 15.3968C-0.136778 15.3968 -0.136778 16.214 0.410333 16.214H2.93024V23.8659C2.93024 24.0924 3.11494 24.2745 3.34457 24.2745H7.04755C7.12742 25.9473 8.52615 27.2862 10.2424 27.2862C11.9586 27.2862 13.3593 25.9482 13.4372 24.2745H22.3687C22.4485 25.9473 23.8503 27.2862 25.5635 27.2862C27.2767 27.2862 28.6774 25.9482 28.7583 24.2775H30.0602C30.2898 24.2775 30.4745 24.0953 30.4745 23.8689V20.2113C30.4745 18.952 29.8525 17.7696 28.8082 17.045L28.1203 16.5684L27.3106 14.3069C26.8184 12.9305 25.4926 12.0041 24.011 12.0041H21.1816V10.2269C21.1816 10.0005 20.9969 9.81836 20.7673 9.81836H3.34856C3.11893 9.81836 2.93423 10.0005 2.93423 10.2269V12.3388H0.411332C-0.135779 12.3388 -0.135779 13.156 0.411332 13.156H2.93124V15.3958H0.411332L0.410333 15.3968ZM25.5665 26.4691C23.989 26.4691 22.8389 24.9598 23.2922 23.4603C24.0659 20.9093 27.9376 21.4242 27.9376 24.1308C27.9376 25.4008 26.8873 26.472 25.5635 26.472L25.5665 26.4691ZM29.6478 23.4613H28.6944C28.5896 22.9847 28.3739 22.5486 28.0784 22.1774H29.6508V23.4613H29.6478ZM23.1234 12.8242H24.016C25.1462 12.8242 26.1575 13.5301 26.5339 14.5816C27.2418 16.5547 27.1828 16.2928 27.0561 16.2928H23.1234V12.8232V12.8242ZM21.1836 12.8242H22.2948V16.7023C22.2948 16.9288 22.4795 17.1109 22.7091 17.1109H27.4654L28.336 17.7154C29.1596 18.2875 29.6518 19.2198 29.6518 20.2142V21.3612H27.104C26.1475 20.8434 24.9904 20.8434 24.034 21.3612H21.1876V12.8271L21.1846 12.8242H21.1836ZM21.1836 22.1774H23.0516C22.756 22.5476 22.5404 22.9838 22.4356 23.4613H21.1836V22.1774ZM10.2434 26.4691C8.66792 26.4691 7.5128 24.9647 7.96906 23.4573C8.74579 20.9014 12.6145 21.4272 12.6145 24.1278C12.6145 25.4008 11.5642 26.4691 10.2404 26.4691H10.2434ZM20.3539 23.4583H13.3703C13.2655 22.9818 13.0498 22.5456 12.7543 22.1745H20.304C20.3759 22.1745 20.3539 21.9943 20.3539 23.4583ZM3.76289 16.215H4.52864C5.07576 16.215 5.07576 15.3978 4.52864 15.3978H3.76289V13.158H4.80719C5.3543 13.158 5.3543 12.3408 4.80719 12.3408H3.76289V10.6375H20.3569C20.3569 21.3583 20.3869 21.3583 20.307 21.3583H11.7819C10.8254 20.8404 9.6683 20.8404 8.71185 21.3583H3.76289V16.216V16.215ZM3.76289 22.1745H7.73344C7.43792 22.5447 7.22227 22.9808 7.11744 23.4583H3.76289V22.1745ZM8.81169 24.1288C8.81169 24.8751 9.43368 25.5436 10.2464 25.5436C11.2827 25.5436 12.0394 24.437 11.5013 23.4593C10.7775 22.1459 8.80969 22.7022 8.80969 24.1298H8.81269L8.81169 24.1288ZM10.2454 24.7254C9.90292 24.7254 9.64034 24.4448 9.64034 24.1288C9.64034 23.8128 9.90292 23.5322 10.2454 23.5322C10.5878 23.5322 10.8504 23.8187 10.8504 24.1288C10.8504 24.4389 10.5878 24.7254 10.2454 24.7254ZM8.41333 16.215H6.08412C5.53701 16.215 5.53701 15.3978 6.08412 15.3978H8.41333C8.96045 15.3978 8.96045 16.215 8.41333 16.215ZM24.1318 24.1288C24.1318 24.8731 24.7538 25.5436 25.5665 25.5436C26.6028 25.5436 27.3596 24.437 26.8214 23.4593C26.0916 22.1351 24.1298 22.715 24.1298 24.1298H24.1328L24.1318 24.1288ZM25.5665 24.7254C25.221 24.7254 24.9615 24.4419 24.9615 24.1288C24.9615 23.8157 25.221 23.5322 25.5665 23.5322C25.9119 23.5322 26.1715 23.8206 26.1715 24.1288C26.1715 24.437 25.9089 24.7254 25.5665 24.7254ZM0.708849 19.8499C0.161737 19.8499 0.161737 19.0328 0.708849 19.0328H1.82803C2.37514 19.0328 2.37514 19.8499 1.82803 19.8499H0.708849Z"></path>
<defs>
<clipPath id="clip0_3852_12540">
<rect transform="translate(26.733 4.71289)" fill="white" height="5.14615" width="5.267"></rect>
</clipPath>
<clipPath id="clip1_3852_12540">
<rect transform="translate(25.527 8.48438)" fill="white" height="2.19988" width="2.33196"></rect>
</clipPath>
</defs>
</svg>
